<svg width="151" height="39" viewBox="0 0 151 39" fill="none" xmlns="http://www.w3.org/2000/svg">
<path d="M9.9216 30.448C8.216 30.448 6.70746 30.1433 5.39599 29.534C4.08453 28.9247 3.05733 28.0431 2.31439 26.8892C1.57146 25.7353 1.19999 24.3328 1.19999 22.6816V21.836H4.99042V22.6816C4.99042 24.1525 5.43722 25.252 6.33081 25.98C7.22441 26.708 8.42134 27.072 9.9216 27.072C11.4432 27.072 12.5865 26.7588 13.3516 26.1324C14.1166 25.506 14.4992 24.7056 14.4992 23.7312C14.4992 23.064 14.3157 22.5244 13.9488 22.1124C13.5818 21.7004 13.0531 21.3643 12.3624 21.104C11.6717 20.8437 10.8408 20.6032 9.86959 20.3824L8.904 20.1608C7.424 19.8232 6.1468 19.3968 5.0724 18.8816C3.99799 18.3664 3.17026 17.6887 2.58919 16.8484C2.00813 16.0081 1.71759 14.9184 1.71759 13.5792C1.71759 12.24 2.04106 11.0916 2.68799 10.134C3.33493 9.1764 4.24386 8.44 5.41479 7.9248C6.58573 7.4096 7.96 7.152 9.5376 7.152C11.1152 7.152 12.5224 7.4212 13.7592 7.9596C14.996 8.498 15.9699 9.2984 16.6808 10.3608C17.3917 11.4232 17.7472 12.7539 17.7472 14.3528V15.408H13.9568V14.3528C13.9568 13.4435 13.7756 12.7097 13.4132 12.1516C13.0508 11.5935 12.5379 11.1834 11.8744 10.9212C11.2109 10.6591 10.432 10.528 9.5376 10.528C8.20907 10.528 7.20534 10.7886 6.52641 11.3096C5.84748 11.8307 5.50802 12.552 5.50802 13.4736C5.50802 14.088 5.66322 14.6003 5.97362 15.0104C6.28401 15.4205 6.74308 15.7592 7.35081 16.0264C7.95854 16.2936 8.72161 16.5288 9.64 16.732L10.6056 16.9536C12.1309 17.2837 13.4679 17.7089 14.6164 18.2292C15.7649 18.7495 16.6643 19.4404 17.3144 20.302C17.9645 21.1636 18.2896 22.2715 18.2896 23.6256C18.2896 24.9797 17.9467 26.1676 17.2608 27.1892C16.5749 28.2108 15.6057 29.0093 14.3532 29.5848C13.1007 30.1603 11.6235 30.448 9.9216 30.448ZM20.0312 34.8704V31.5472H35.5208V34.8704H20.0312ZM38.32 30V7.6H47.88C49.2843 7.6 50.51 7.84347 51.5572 8.3304C52.6044 8.81733 53.4188 9.50787 54.0004 10.402C54.582 11.2961 54.8728 12.3549 54.8728 13.5784V13.9512C54.8728 15.3251 54.5453 16.4308 53.8904 17.2684C53.2355 18.106 52.4349 18.7075 51.4888 19.0728V19.6152C52.3235 19.6541 52.9792 19.9372 53.456 20.4644C53.9328 20.9916 54.1712 21.7107 54.1712 22.6216V30H50.328V23.1624C50.328 22.6205 50.1853 22.1859 49.9 21.8584C49.6147 21.5309 49.1515 21.3672 48.5104 21.3672H42.1632V30H38.32ZM42.1632 17.8744H47.4768C48.5952 17.8744 49.4669 17.5819 50.092 16.9968C50.717 16.4117 51.0296 15.6227 51.0296 14.6296V14.3376C51.0296 13.3445 50.7233 12.5555 50.1108 11.9704C49.4983 11.3854 48.6203 11.0928 47.4768 11.0928H42.1632V17.8744ZM56.8952 34.8704V31.5472H72.3848V34.8704H56.8952ZM75.184 30V7.6H79.0272V30H75.184ZM81.8232 34.8704V31.5472H97.3128V34.8704H81.8232ZM100.112 30V7.6H114.361V11.0928H103.955V16.9688H113.465V20.4616H103.955V26.5072H114.542V30H100.112ZM116.255 34.8704V31.5472H131.745V34.8704H116.255ZM142.242 30.448C140.536 30.448 139.027 30.1433 137.716 29.534C136.405 28.9247 135.377 28.0431 134.634 26.8892C133.891 25.7353 133.52 24.3328 133.52 22.6816V21.836H137.31V22.6816C137.31 24.1525 137.757 25.252 138.651 25.98C139.544 26.708 140.741 27.072 142.242 27.072C143.763 27.072 144.907 26.7588 145.672 26.1324C146.437 25.506 146.819 24.7056 146.819 23.7312C146.819 23.064 146.636 22.5244 146.269 22.1124C145.902 21.7004 145.373 21.3643 144.682 21.104C143.992 20.8437 143.161 20.6032 142.19 20.3824L141.224 20.1608C139.744 19.8232 138.467 19.3968 137.392 18.8816C136.318 18.3664 135.49 17.6887 134.909 16.8484C134.328 16.0081 134.038 14.9184 134.038 13.5792C134.038 12.24 134.361 11.0916 135.008 10.134C135.655 9.1764 136.564 8.44 137.735 7.9248C138.906 7.4096 140.28 7.152 141.858 7.152C143.435 7.152 144.842 7.4212 146.079 7.9596C147.316 8.498 148.29 9.2984 149.001 10.3608C149.712 11.4232 150.067 12.7539 150.067 14.3528V15.408H146.277V14.3528C146.277 13.4435 146.096 12.7097 145.733 12.1516C145.371 11.5935 144.858 11.1834 144.194 10.9212C143.531 10.6591 142.752 10.528 141.858 10.528C140.529 10.528 139.525 10.7886 138.846 11.3096C138.167 11.8307 137.828 12.552 137.828 13.4736C137.828 14.088 137.983 14.6003 138.294 15.0104C138.604 15.4205 139.063 15.7592 139.671 16.0264C140.279 16.2936 141.042 16.5288 141.96 16.732L142.926 16.9536C144.451 17.2837 145.788 17.7089 146.936 18.2292C148.085 18.7495 148.984 19.4404 149.634 20.302C150.285 21.1636 150.61 22.2715 150.61 23.6256C150.61 24.9797 150.267 26.1676 149.581 27.1892C148.895 28.2108 147.926 29.0093 146.673 29.5848C145.421 30.1603 143.943 30.448 142.242 30.448Z" fill="#5FFFD7"/>
</svg>
